HIERARCHY
ROOT Hips
{
	OFFSET 0.000000 0.000000 0.000000
	CHANNELS 6 Xposition Yposition Zposition Yrotation Xrotation Zrotation
	JOINT Chest
	{
		OFFSET 0.000000 -0.009281 11.569106
		CHANNELS 3 Yrotation Xrotation Zrotation
		JOINT Chest2
		{
			OFFSET -0.000000 0.016865 9.269641
			CHANNELS 3 Yrotation Xrotation Zrotation
			JOINT Chest3
			{
				OFFSET -0.000000 0.000001 8.374491
				CHANNELS 3 Yrotation Xrotation Zrotation
				JOINT Chest4
				{
					OFFSET -0.000000 0.000001 8.374493
					CHANNELS 3 Yrotation Xrotation Zrotation
					JOINT Neck
					{
						OFFSET -0.000000 0.000002 12.152554
						CHANNELS 3 Yrotation Xrotation Zrotation
						JOINT Head
						{
							OFFSET -0.000000 0.040101 7.802319
							CHANNELS 3 Yrotation Xrotation Zrotation
							End Site
							{
								OFFSET -0.000000 0.020947 14.853096
							}
						}
					}
					JOINT RightCollar
					{
						OFFSET 2.894404 0.000001 6.791374
						CHANNELS 3 Yrotation Xrotation Zrotation
						JOINT RightShoulder
						{
							OFFSET 13.574684 0.000001 0.000000
							CHANNELS 3 Yrotation Xrotation Zrotation
							JOINT RightElbow
							{
								OFFSET 23.923903 0.000002 0.000000
								CHANNELS 3 Yrotation Xrotation Zrotation
								JOINT RightWrist
								{
									OFFSET 19.846718 0.012767 0.000000
									CHANNELS 3 Yrotation Xrotation Zrotation
									End Site
									{
										OFFSET 14.973145 0.000001 0.000000
									}
								}
							}
						}
					}
					JOINT LeftCollar
					{
						OFFSET -2.894404 0.000001 6.791374
						CHANNELS 3 Yrotation Xrotation Zrotation
						JOINT LeftShoulder
						{
							OFFSET -13.574684 -0.000001 0.000000
							CHANNELS 3 Yrotation Xrotation Zrotation
							JOINT LeftElbow
							{
								OFFSET -23.923903 -0.000002 0.000000
								CHANNELS 3 Yrotation Xrotation Zrotation
								JOINT LeftWrist
								{
									OFFSET -19.846718 0.012763 0.000000
									CHANNELS 3 Yrotation Xrotation Zrotation
									End Site
									{
										OFFSET -14.973145 -0.000001 0.000000
									}
								}
							}
						}
					}
				}
			}
		}
	}
	JOINT RightHip
	{
		OFFSET 9.469263 0.004643 0.045487
		CHANNELS 3 Yrotation Xrotation Zrotation
		JOINT RightKnee
		{
			OFFSET 0.000000 0.002661 -40.478676
			CHANNELS 3 Yrotation Xrotation Zrotation
			JOINT RightAnkle
			{
				OFFSET 0.000000 0.049106 -35.224068
				CHANNELS 3 Yrotation Xrotation Zrotation
				JOINT RightToe
				{
					OFFSET -0.000001 12.539529 -6.151390
					CHANNELS 3 Yrotation Xrotation Zrotation
					End Site
					{
						OFFSET -0.000001 5.044994 -1.291870
					}
				}
			}
		}
	}
	JOINT LeftHip
	{
		OFFSET -9.469263 0.004641 0.045487
		CHANNELS 3 Yrotation Xrotation Zrotation
		JOINT LeftKnee
		{
			OFFSET 0.000000 0.002661 -40.478676
			CHANNELS 3 Yrotation Xrotation Zrotation
			JOINT LeftAnkle
			{
				OFFSET 0.000000 0.049106 -35.224068
				CHANNELS 3 Yrotation Xrotation Zrotation
				JOINT LeftToe
				{
					OFFSET -0.000001 12.539529 -6.151390
					CHANNELS 3 Yrotation Xrotation Zrotation
					End Site
					{
						OFFSET -0.000001 5.044994 -1.291870
					}
				}
			}
		}
	}
}
MOTION
Frames: 11
Frame Time: 0.016667
9.041067 8.028979 83.019440 -8.350888 -4.459178 -114.929121 -1.162941 -2.532292 -1.452652 -0.524562 -1.116806 -0.684851 -0.524561 -1.116807 -0.684850 -0.394661 -0.837018 -0.514581 0.443858 -15.978249 -9.742509 -2.663765 5.989611 -17.964550 0.305370 4.983507 1.357576 71.190065 32.051513 74.293832 54.550542 39.256727 62.459956 -58.647529 31.655509 -22.617249 -10.345226 0.985451 -8.815993 -69.240892 -19.131630 -38.742926 -48.749365 9.871334 -47.908501 55.819987 37.353079 20.134559 -0.014689 -6.999327 1.033362 0.610907 -7.017635 -2.277365 0.012549 4.288451 3.870663 0.017079 0.104053 0.020406 0.099810 -10.318765 5.109519 0.506031 -3.938080 2.723190 -1.017872 5.422982 0.827490 0.098450 -0.048984 -0.014775 
9.069742 8.018600 83.024765 -8.283673 -4.452932 -114.938833 -1.158565 -2.495346 -1.475394 -0.523165 -1.100976 -0.694631 -0.523165 -1.100975 -0.694634 -0.393614 -0.825139 -0.521899 0.520717 -15.934551 -10.089100 -2.647620 6.042049 -18.585126 0.251175 5.078503 1.406938 71.140122 31.943507 74.428524 54.598948 39.532155 62.411516 -59.601959 31.500426 -22.748193 -10.347226 0.963203 -8.845561 -68.877608 -19.362855 -39.196530 -48.946392 10.054707 -48.372202 56.569491 36.395479 20.332273 0.005380 -7.003521 1.050909 0.599485 -6.911529 -2.325235 0.047521 4.226445 3.942092 -0.001772 0.101973 0.020506 0.137033 -10.320559 5.150906 0.474373 -3.853789 2.784281 -1.066970 5.390605 0.743348 0.120314 -0.040702 -0.015119 
9.097466 8.009191 83.029152 -8.210744 -4.439509 -114.948136 -1.158886 -2.453126 -1.507278 -0.523592 -1.082630 -0.707173 -0.523591 -1.082630 -0.707178 -0.393936 -0.811369 -0.531296 0.587901 -15.903611 -10.396391 -2.633946 6.073399 -19.134992 0.201460 5.190972 1.474859 71.037922 31.806951 74.518525 54.700140 39.760041 62.483930 -60.350295 31.371028 -22.871865 -10.352720 0.938317 -8.864295 -68.497221 -19.573220 -39.645857 -49.122229 10.144684 -48.921670 57.208992 35.605015 20.498123 0.030877 -7.008388 1.048423 0.576984 -6.788744 -2.364006 0.084858 4.162240 3.963922 -0.018645 0.094836 0.019396 0.165127 -10.312708 5.168911 0.450813 -3.769096 2.823205 -1.113064 5.355152 0.701614 0.135252 -0.032073 -0.015731 
9.122548 7.998677 83.032814 -8.136534 -4.424840 -114.965444 -1.169266 -2.413194 -1.532547 -0.528540 -1.065306 -0.716530 -0.528540 -1.065306 -0.716531 -0.397644 -0.798362 -0.538306 0.652262 -15.883171 -10.671898 -2.612918 6.088221 -19.625814 0.153847 5.279227 1.507818 70.944915 31.625173 74.613103 54.932117 39.884651 62.770538 -61.047247 31.314266 -23.041700 -10.350664 0.912060 -8.897404 -68.131431 -19.741798 -40.072177 -49.343677 10.141772 -49.590459 57.901317 34.925435 20.663102 0.051073 -7.008943 1.039582 0.553561 -6.665372 -2.396529 0.127006 4.097682 4.012877 -0.033225 0.085971 0.018903 0.187437 -10.299934 5.183262 0.436611 -3.689015 2.853177 -1.157954 5.321259 0.674354 0.142742 -0.024769 -0.016483 
9.143418 7.987435 83.035973 -8.062709 -4.408578 -114.991562 -1.183682 -2.377476 -1.552808 -0.535739 -1.050893 -0.723186 -0.535740 -1.050892 -0.723191 -0.403037 -0.787537 -0.543298 0.706101 -15.871768 -10.910087 -2.597029 6.088850 -20.050159 0.108189 5.323086 1.527465 70.883935 31.432732 74.749187 55.269785 39.880457 63.247989 -61.636187 31.319805 -23.200788 -10.341803 0.869659 -8.930962 -67.820404 -19.842104 -40.483324 -49.650657 10.025884 -50.363079 58.631389 34.422128 20.791985 0.069834 -6.997221 1.042871 0.534191 -6.552956 -2.432173 0.164124 4.029133 4.103322 -0.045092 0.082064 0.018054 0.202254 -10.285556 5.211362 0.431781 -3.612954 2.894063 -1.203789 5.282526 0.631642 0.144411 -0.011085 -0.016216 
9.159681 7.975100 83.038712 -7.983571 -4.389763 -115.034756 -1.201615 -2.340837 -1.560916 -0.544218 -1.035282 -0.725639 -0.544218 -1.035282 -0.725642 -0.409382 -0.775817 -0.545138 0.746061 -15.867629 -11.112191 -2.593151 6.077998 -20.411641 0.074177 5.353107 1.538404 70.841704 31.221283 74.881427 55.645397 39.721204 63.888066 -62.026594 31.385655 -23.369619 -10.326030 0.812721 -8.967311 -67.592262 -19.872263 -40.831417 -49.949508 9.733452 -51.221518 59.308404 34.032305 20.844134 0.088143 -6.972534 1.066073 0.516728 -6.453058 -2.462052 0.197864 3.971499 4.170566 -0.054447 0.074352 0.016874 0.217514 -10.257044 5.271314 0.427971 -3.547266 2.929599 -1.247931 5.254035 0.575343 0.141560 -0.006771 -0.015294 
9.171574 7.961712 83.040466 -7.898574 -4.366744 -115.080505 -1.227329 -2.295203 -1.559706 -0.556227 -1.015173 -0.724225 -0.556226 -1.015174 -0.724223 -0.418363 -0.760723 -0.544081 0.778711 -15.878419 -11.281266 -2.588983 6.042370 -20.712750 0.070341 5.392204 1.531704 70.793142 30.960459 74.947406 56.050616 39.369910 64.703126 -62.280807 31.559012 -23.571949 -10.298342 0.725824 -9.013334 -67.439778 -19.830324 -41.123603 -50.192540 9.231194 -52.090383 60.003526 33.859440 20.808404 0.106132 -6.930899 1.085522 0.507007 -6.369156 -2.475545 0.221679 3.921659 4.184661 -0.061859 0.066640 0.015478 0.234046 -10.213349 5.350503 0.424200 -3.494077 2.945702 -1.287189 5.233253 0.522400 0.134621 -0.005939 -0.013987 
9.176515 7.945612 83.041168 -7.812069 -4.341724 -115.125174 -1.253339 -2.249944 -1.553695 -0.568123 -0.995356 -0.721032 -0.568124 -0.995357 -0.721034 -0.427256 -0.745849 -0.541688 0.805142 -15.896934 -11.423238 -2.585660 5.994743 -20.964856 0.073741 5.401216 1.532146 70.765111 30.704255 75.007683 56.492279 38.833389 65.695546 -62.456076 31.903697 -23.849742 -10.285929 0.650251 -9.057226 -67.340105 -19.757784 -41.362376 -50.366638 8.600391 -52.970706 60.346968 33.857681 20.605607 0.121035 -6.872414 1.098181 0.498249 -6.308050 -2.471772 0.243603 3.881131 4.232468 -0.066130 0.059196 0.014875 0.252045 -10.160231 5.425516 0.423374 -3.448015 2.949754 -1.323206 5.214621 0.486489 0.123926 -0.007430 -0.012450 
9.177631 7.928244 83.040970 -7.730560 -4.313400 -115.170937 -1.280261 -2.212138 -1.545878 -0.580411 -0.978337 -0.716624 -0.580411 -0.978337 -0.716627 -0.436446 -0.733075 -0.538383 0.828897 -15.919539 -11.539005 -2.577568 5.942384 -21.168766 0.095086 5.395187 1.573702 70.777016 30.478917 75.041028 56.967661 38.079794 66.854698 -62.364989 32.607074 -24.210690 -10.294612 0.592509 -9.097192 -67.283094 -19.672538 -41.537823 -50.469043 7.860423 -53.892716 60.333315 34.023877 20.327077 0.137987 -6.813290 1.103650 0.490423 -6.251664 -2.453993 0.255834 3.845125 4.246245 -0.069026 0.049848 0.013895 0.265702 -10.102413 5.484043 0.423032 -3.414200 2.949183 -1.353159 5.202651 0.467485 0.110642 -0.010461 -0.011603 
9.174522 7.908067 83.040169 -7.654335 -4.284497 -115.216330 -1.316803 -2.178484 -1.531045 -0.596853 -0.963299 -0.709244 -0.596853 -0.963300 -0.709244 -0.448748 -0.721784 -0.532869 0.862175 -15.947119 -11.638852 -2.545595 5.884509 -21.339123 0.142615 5.336752 1.621088 71.076082 30.349017 75.210812 57.321673 37.046263 67.849364 -61.920050 33.566258 -24.659003 -10.290703 0.517330 -9.150534 -67.281666 -19.531577 -41.643038 -50.592062 7.033970 -54.859844 60.133313 34.459824 20.052134 0.152965 -6.750345 1.106633 0.485359 -6.209633 -2.429840 0.263417 3.818394 4.237872 -0.070312 0.039247 0.012901 0.278797 -10.042694 5.529524 0.424473 -3.389834 2.940260 -1.377058 5.195202 0.469909 0.093485 -0.014304 -0.010665 
9.167317 7.882088 83.038971 -7.583518 -4.257437 -115.268403 -1.357796 -2.155621 -1.515311 -0.615140 -0.952980 -0.701499 -0.615140 -0.952980 -0.701503 -0.462439 -0.714031 -0.527076 0.905464 -15.972367 -11.722973 -2.490161 5.834671 -21.476983 0.201965 5.268309 1.635202 71.682931 30.306246 75.563441 57.638662 35.783716 68.560790 -61.434437 34.818443 -25.223038 -10.277449 0.439046 -9.204698 -67.351266 -19.345575 -41.678631 -50.789212 6.155253 -55.847827 59.858221 35.133298 19.682099 0.169278 -6.682528 1.111030 0.479744 -6.187050 -2.395584 0.265112 3.803255 4.274616 -0.068525 0.028373 0.013417 0.294147 -9.986109 5.577619 0.425859 -3.371067 2.920064 -1.393686 5.192134 0.481443 0.071875 -0.018954 -0.010083 
